<?xml version="1.0" encoding="UTF-8"?>
<!-- Created with Inkscape (http://www.inkscape.org/) -->
<svg width="100" height="100" version="1.1" viewBox="0 0 100 100" xmlns="http://www.w3.org/2000/svg">
 <g stroke-width="1.2">
  <path d="m50 4.15-21.1 12.2v24.4l21.1 12.2 21.1-12.2v-24.4zm0 7.41 14.7 8.5v17l-14.7 8.5-14.7-8.5v-17z" fill="#58595B"/>
  <path d="m74.9 46.8-21.1 12.2v24.4l21.1 12.2 21.1-12.2v-24.4zm0 7.41 14.7 8.5v17l-14.7 8.5-14.7-8.5v-17z" fill="#58595B"/>
  <path d="m25.1 46.8-21.1 12.2v24.4l21.1 12.2 21.1-12.2v-24.4zm0 7.41 14.7 8.5v17l-14.7 8.5-14.7-8.5v-17z" fill="#0A32FF"/>
 </g>
</svg>
