<?xml version="1.0" encoding="UTF-8"?>
<svg xmlns="http://www.w3.org/2000/svg" xmlns:xlink="http://www.w3.org/1999/xlink" width="40px" height="40px" viewBox="0 0 40 40" version="1.1">
<g id="surface1">
<path style=" stroke:none;fill-rule:nonzero;fill:rgb(0%,100%,100%);fill-opacity:1;" d="M 35.398438 5.355469 C 34.179688 4.140625 32.332031 3.359375 30.503906 3.203125 C 28.679688 3.050781 26.933594 3.523438 25.90625 4.550781 L 21.566406 8.894531 L 24.695312 12.023438 L 29.285156 10.847656 C 28.839844 10.148438 28.90625 9.277344 29.441406 8.742188 C 30.085938 8.09375 31.183594 8.148438 31.894531 8.859375 C 32.605469 9.570312 32.660156 10.667969 32.011719 11.3125 C 31.476562 11.847656 30.605469 11.914062 29.902344 11.46875 L 28.730469 16.058594 L 31.859375 19.1875 L 36.203125 14.847656 C 37.230469 13.820312 37.703125 12.074219 37.550781 10.25 C 37.394531 8.421875 36.613281 6.570312 35.398438 5.355469 Z M 16.289062 1.667969 L 14.054688 5.03125 L 3.09375 30.589844 C 1.972656 32.570312 2.253906 35.136719 3.933594 36.820312 C 5.953125 38.835938 9.25 38.835938 11.269531 36.820312 L 12.46875 35.621094 C 12.738281 34.894531 12.886719 34.007812 12.78125 32.996094 C 12.742188 31.71875 12.238281 30.453125 11.269531 29.484375 C 9.816406 28.03125 7.699219 27.625 5.875 28.261719 L 15.5625 5.679688 Z M 28.0625 17.710938 L 14.183594 31.589844 C 14.363281 32.304688 14.441406 32.992188 14.441406 33.644531 L 29.222656 18.867188 Z M 10.113281 30.640625 C 10.78125 31.304688 11.15625 32.207031 11.15625 33.152344 C 11.15625 34.09375 10.78125 34.996094 10.113281 35.660156 C 9.449219 36.328125 8.542969 36.703125 7.601562 36.703125 C 6.660156 36.703125 5.757812 36.328125 5.09375 35.660156 C 4.160156 34.726562 3.851562 33.417969 4.171875 32.238281 L 4.566406 31.308594 C 4.714844 31.066406 4.890625 30.84375 5.09375 30.640625 C 5.757812 29.972656 6.660156 29.597656 7.601562 29.597656 C 8.542969 29.597656 9.449219 29.972656 10.113281 30.640625 Z M 10.113281 30.640625 "/>
</g>
</svg>
